<svg xmlns="http://www.w3.org/2000/svg" width="20" height="20" viewBox="0 0 20 20" fill="none">
	<g clip-path="url(#clip0_634_941)">
	<path fill-rule="evenodd" clip-rule="evenodd" d="M0.146447 0.146447C0.341709 -0.0488155 0.658291 -0.0488155 0.853553 0.146447L19.8536 19.1464C20.0488 19.3417 20.0488 19.6583 19.8536 19.8536C19.6583 20.0488 19.3417 20.0488 19.1464 19.8536L0.146447 0.853553C-0.0488155 0.658291 -0.0488155 0.341709 0.146447 0.146447Z" fill="#CBE66B"/>
	<path fill-rule="evenodd" clip-rule="evenodd" d="M19.8536 0.146447C20.0488 0.341709 20.0488 0.658291 19.8536 0.853553L0.853553 19.8536C0.658291 20.0488 0.341709 20.0488 0.146447 19.8536C-0.0488155 19.6583 -0.0488155 19.3417 0.146447 19.1464L19.1464 0.146447C19.3417 -0.0488155 19.6583 -0.0488155 19.8536 0.146447Z" fill="#CBE66B"/>
	</g>
	<defs>
	<clipPath id="clip0_634_941">
	<rect width="20" height="20" fill="white"/>
	</clipPath>
	</defs>
</svg>