<svg xmlns="http://www.w3.org/2000/svg" width="15" height="15" viewBox="0 0 15 15" fill="none">
  <g clip-path="url(#clip0_528_2227)">
    <path d="M3.21667 14.05H0.183333V4.90833H3.225V14.05H3.21667ZM1.7 3.65833H1.68333C0.658333 3.65833 0 2.95833 0 2.075C0 1.19167 0.683333 0.5 1.71667 0.5C2.75 0.5 3.39167 1.18333 3.41667 2.075C3.41667 2.95 2.75833 3.65833 1.7 3.65833ZM14.175 14.05H11.1333V9.15833C11.1333 7.93333 10.6917 7.09167 9.59167 7.09167C8.75 7.09167 8.25 7.65833 8.03333 8.2C7.95 8.39167 7.93333 8.66667 7.93333 8.94167V14.05H4.89167C4.89167 14.05 4.93333 5.76667 4.89167 4.90833H7.93333V6.2C8.33333 5.575 9.05833 4.69167 10.675 4.69167C12.675 4.69167 14.175 6 14.175 8.80833V14.05Z" fill="#CBE66B"/>
  </g>
  <defs>
    <clipPath id="clip0_528_2227">
      <rect width="14.175" height="13.55" fill="white" transform="translate(0 0.5)"/>
    </clipPath>
  </defs>
</svg>