<svg xmlns="http://www.w3.org/2000/svg" width="24" height="17" viewBox="0 0 24 17" fill="none">
	<path fill-rule="evenodd" clip-rule="evenodd" d="M0 0.5C0 0.223858 0.223858 0 0.5 0H23.5C23.7761 0 24 0.223858 24 0.5C24 0.776142 23.7761 1 23.5 1H0.5C0.223858 1 0 0.776142 0 0.5Z" fill="#507F87"/>
	<path fill-rule="evenodd" clip-rule="evenodd" d="M0 16.5C0 16.2239 0.223858 16 0.5 16H23.5C23.7761 16 24 16.2239 24 16.5C24 16.7761 23.7761 17 23.5 17H0.5C0.223858 17 0 16.7761 0 16.5Z" fill="#507F87"/>
	<path fill-rule="evenodd" clip-rule="evenodd" d="M0 8.5C0 8.22386 0.223858 8 0.5 8H23.5C23.7761 8 24 8.22386 24 8.5C24 8.77614 23.7761 9 23.5 9H0.5C0.223858 9 0 8.77614 0 8.5Z" fill="#507F87"/>
</svg>