<svg xmlns="http://www.w3.org/2000/svg" width="35" height="35" viewBox="0 0 35 35" fill="none">
  <path d="M17.4989 12.7559C14.9138 12.7559 12.8008 14.8582 12.8008 17.4539C12.8008 20.0497 14.9031 22.152 17.4989 22.152C20.0946 22.152 22.1969 20.0497 22.1969 17.4539C22.1969 14.8582 20.0946 12.7559 17.4989 12.7559ZM17.4989 20.468C15.8363 20.468 14.4848 19.1165 14.4848 17.4539C14.4848 15.7914 15.8363 14.4399 17.4989 14.4399C19.1614 14.4399 20.5129 15.7914 20.5129 17.4539C20.5129 19.1165 19.1614 20.468 17.4989 20.468Z" fill="#CBE66B"/>
  <path d="M22.3685 13.7004C22.955 13.7004 23.4304 13.225 23.4304 12.6386C23.4304 12.0521 22.955 11.5767 22.3685 11.5767C21.7821 11.5767 21.3066 12.0521 21.3066 12.6386C21.3066 13.225 21.7821 13.7004 22.3685 13.7004Z" fill="#CBE66B"/>
  <path d="M25.1567 9.87131C24.1913 8.89523 22.8505 8.38037 21.2952 8.38037H13.7225C10.5261 8.38037 8.38086 10.5256 8.38086 13.7113V21.2411C8.38086 22.8393 8.91717 24.1908 9.91471 25.1669C10.8908 26.1108 12.2208 26.6149 13.7547 26.6149H21.2416C22.8076 26.6149 24.1484 26.1108 25.1137 25.1669C26.1006 24.2015 26.6154 22.8608 26.6154 21.2733V13.7006C26.6154 12.156 26.1113 10.8259 25.1459 9.86059L25.1567 9.87131ZM24.9529 21.284C24.9529 22.4103 24.6096 23.3327 23.9553 23.9763C23.3117 24.6091 22.3786 24.9416 21.2523 24.9416H13.7654C12.6713 24.9416 11.7489 24.6091 11.0946 23.9656C10.4188 23.3113 10.0649 22.3673 10.0649 21.2411V13.7113C10.0649 12.5958 10.4081 11.6733 11.0517 11.0297C11.6953 10.3969 12.6177 10.0537 13.7225 10.0537H21.2952C22.4 10.0537 23.3225 10.3969 23.966 11.0512C24.6096 11.6948 24.9529 12.6172 24.9529 13.7113V21.284Z" fill="#CBE66B"/>
</svg>