<svg width="120" height="16" viewBox="0 0 120 16" fill="none" xmlns="http://www.w3.org/2000/svg">
<g clip-path="url(#clip0_372_11878)">
<path d="M32.2208 4.791V3.9587H35.8839V15.6192C34.6737 15.6192 32.2249 15.6192 32.2249 15.6192V14.7496C32.2249 14.7496 32.0909 14.8365 32.0421 14.8738C28.574 17.4411 23.7901 15.379 23.1525 11.0353C22.8317 8.86139 23.2256 6.86967 24.7566 5.24234C26.645 3.23406 29.7395 2.97733 31.9609 4.60466C32.0218 4.65021 32.0868 4.69162 32.2249 4.78686L32.2208 4.791ZM26.6572 9.7765C26.6572 11.5736 27.7902 12.8034 29.4349 12.7951C31.0187 12.7869 32.2167 11.4991 32.2249 9.80135C32.233 8.0912 31.0106 6.75373 29.4349 6.73717C27.8268 6.7206 26.6572 8.00011 26.6612 9.7765H26.6572Z" fill="white"/>
<path d="M119.485 3.99572C117.787 5.87977 116.143 7.70172 114.47 9.56093C116.297 11.5816 118.12 13.5982 120.001 15.6769H115.298C114.1 14.3228 112.861 12.9233 111.607 11.503H110.945V15.681H107.31C107.253 15.2794 107.233 0.873563 107.29 0.148926H110.92V7.96673H111.432C111.432 7.96673 113.844 5.32491 115.054 3.99572H119.485Z" fill="white"/>
<path d="M66.2972 15.7227C66.9185 14.5468 67.4911 13.4702 68.0719 12.3687C69.3592 12.3687 70.6384 12.3687 71.9177 12.3687C72.5228 12.3687 73.1157 12.3273 73.7045 12.1824C75.8122 11.6648 77.0184 10.0043 76.9656 7.68961C76.9168 5.56539 75.5807 3.95048 73.5299 3.53226C72.4822 3.32108 71.4263 3.43703 70.3704 3.41218C69.7369 3.39562 69.1074 3.41218 68.4374 3.41218V0.0747072C68.4374 0.0747072 68.478 0.0747072 68.5023 0.0747072C70.7684 0.116115 73.0548 -0.206866 75.2802 0.45566C77.9768 1.25483 79.8611 2.96498 80.523 5.78899C81.1972 8.66684 80.7017 11.3252 78.5413 13.4743C77.2214 14.7828 75.5767 15.4453 73.7776 15.6192C71.3207 15.8552 68.8516 15.6689 66.2891 15.7269L66.2972 15.7227Z" fill="white"/>
<path d="M61.7229 10.7369H53.3571C53.5642 11.6644 53.9663 12.3973 54.7988 12.7534C55.9318 13.2338 56.9877 13.0185 57.9095 12.1779C59.1116 12.1779 60.3096 12.1779 61.5157 12.1779C60.6426 15.0681 57.7308 16.3642 54.7378 15.8922C51.6311 15.4035 49.292 12.6002 49.8118 8.85282C50.3072 5.27104 53.2393 3.15096 56.8415 3.63543C60.001 4.05779 62.0965 7.07228 61.7229 10.741V10.7369ZM58.0882 8.40976C57.7999 7.20479 56.874 6.54226 55.6516 6.60852C54.612 6.66649 53.6211 7.48636 53.4952 8.40976H58.0882Z" fill="white"/>
<path d="M93.8033 10.7579H85.4538C85.6731 11.6978 86.0995 12.3976 86.9361 12.7786C87.9107 13.2258 88.9869 13.0063 89.9981 12.1864H93.6002C92.7312 15.0684 89.7341 16.4722 86.5137 15.8303C83.2689 15.1844 81.2587 11.8842 81.9491 8.43074C82.6151 5.10569 85.7583 2.99803 89.0925 3.65642C92.5606 4.33965 94.1566 7.50321 93.7992 10.7579H93.8033ZM90.1727 8.40176C89.9656 7.34172 89.1046 6.63364 88.0163 6.6088C86.8345 6.58395 85.8314 7.30859 85.5634 8.40176H90.1727Z" fill="white"/>
<path d="M105.469 7.19257H101.969C101.396 6.34371 100.588 6.07456 99.6051 6.3023C99.1746 6.40168 98.866 6.64599 98.866 7.15116C98.866 7.63149 99.199 7.81369 99.5767 7.90064C100.494 8.11182 101.416 8.29816 102.338 8.49278C102.752 8.57973 103.154 8.69568 103.544 8.86959C104.742 9.40789 105.473 10.3147 105.591 11.6605C105.717 13.0725 105.234 14.2319 104.06 15.0394C103.345 15.528 102.545 15.7847 101.697 15.8882C100.312 16.0621 98.9391 16.029 97.6111 15.5487C96.076 14.9938 95.1014 13.9503 94.9268 12.1988H98.6183C99.2558 13.0725 100.239 13.4162 101.262 13.1139C101.692 12.9855 102.074 12.7702 102.066 12.2526C102.062 11.764 101.664 11.5901 101.278 11.5031C100.316 11.2795 99.3411 11.1015 98.3746 10.8903C98.0578 10.8199 97.7451 10.7288 97.4446 10.6129C96.2872 10.1657 95.4709 9.37891 95.2963 8.08698C95.1095 6.7081 95.5237 5.52383 96.6243 4.65841C97.8507 3.69775 99.2802 3.48657 100.775 3.5818C101.79 3.64806 102.765 3.8758 103.642 4.43481C104.641 5.07249 105.274 5.9669 105.469 7.19671V7.19257Z" fill="white"/>
<path d="M4.45091 3.35404H0C0.491387 2.18634 0.954347 1.08489 1.40918 0H13.1537V3.34161H8.21957V15.6025H4.45091V3.35404Z" fill="white"/>
<path d="M46.332 3.88818C47.595 3.88818 49.9992 3.88818 49.9992 3.88818L50.2104 3.89646C50.2104 3.89646 47.0305 11.7267 45.4508 15.6232H41.6984C40.1308 11.7557 38.5511 7.87162 36.9551 3.92959H40.8334C41.7309 6.27328 42.6365 8.63353 43.5868 11.1056C44.5249 8.64181 45.4224 6.27742 46.332 3.88818Z" fill="white"/>
<path d="M17.7829 15.6275H14.1279V3.94218H17.7666V6.11609C18.9687 4.29 20.4997 3.50325 22.5668 3.82209C22.514 5.08089 22.4571 6.31485 22.4003 7.63162C21.8724 7.63162 21.381 7.57365 20.9099 7.6399C18.9281 7.91733 17.8519 9.24238 17.7951 11.4784C17.7626 12.6875 17.7869 13.8966 17.7829 15.1057C17.7829 15.2672 17.7829 15.4287 17.7829 15.6275Z" fill="white"/>
<path d="M63.1486 0.0703125H66.7995V0.571348C66.7995 0.571348 66.7954 7.25458 66.7995 10.5962C66.7995 10.886 66.7467 11.1428 66.6086 11.3954C65.8492 12.7949 65.102 14.2028 64.3425 15.6231H63.1445V0.0703125H63.1486Z" fill="white"/>
</g>
<defs>
<clipPath id="clip0_372_11878">
<rect width="120" height="16" fill="white"/>
</clipPath>
</defs>
</svg>
